<svg xmlns="http://www.w3.org/2000/svg" xmlns:xlink="http://www.w3.org/1999/xlink" width="82.985" height="76.061" viewBox="0 0 82.985 76.061">
  <defs>
    <clipPath id="clip-path">
      <rect id="사각형_34476" data-name="사각형 34476" width="82.985" height="76.061" transform="translate(0 0)" fill="#4d67d6"/>
    </clipPath>
  </defs>
  <g id="그룹_10065" data-name="그룹 10065" transform="translate(0 0)">
    <g id="그룹_10064" data-name="그룹 10064" clip-path="url(#clip-path)">
      <path id="패스_3975" data-name="패스 3975" d="M44.232,59.061a.878.878,0,0,1-.785-.483,70.31,70.31,0,0,0-25.495-28.02.879.879,0,0,1,.21-1.625,29.636,29.636,0,0,1,7.13-.9A26.569,26.569,0,0,1,42.48,34.4,81.417,81.417,0,0,1,81.769.067a.88.88,0,0,1,.894,1.493c-15.2,12.456-28.1,37-37.637,57a.883.883,0,0,1-.784.5Z" fill="#4d67d6"/>
      <path id="패스_3976" data-name="패스 3976" d="M63.242,76.061H3.457A3.457,3.457,0,0,1,0,72.6V12.819A3.458,3.458,0,0,1,3.457,9.361H45.133v6.915H6.915v52.87h52.87V42.711H66.7V72.6a3.457,3.457,0,0,1-3.457,3.457" fill="#4d67d6"/>
    </g>
  </g>
</svg>
